<svg width="0" height="0" class="hidden">
    <symbol viewBox="0 0 24 24" xmlns="http://www.w3.org/2000/svg" id="discord">
        <path d="M20.222 0c1.406 0 2.54 1.137 2.607 2.475V24l-2.677-2.273-1.47-1.338-1.604-1.398.67 2.205H3.71c-1.402 0-2.54-1.065-2.54-2.476V2.48C1.17 1.142 2.31.003 3.715.003h16.5L20.222 0zm-6.118 5.683h-.03l-.202.2c2.073.6 3.076 1.537 3.076 1.537-1.336-.668-2.54-1.002-3.744-1.137-.87-.135-1.74-.064-2.475 0h-.2c-.47 0-1.47.2-2.81.735-.467.203-.735.336-.735.336s1.002-1.002 3.21-1.537l-.135-.135s-1.672-.064-3.477 1.27c0 0-1.805 3.144-1.805 7.02 0 0 1 1.74 3.743 1.806 0 0 .4-.533.805-1.002-1.54-.468-2.14-1.404-2.14-1.404s.134.066.335.2h.06c.03 0 .044.015.06.03v.006c.016.016.03.03.06.03.33.136.66.27.93.4a8.18 8.18 0 0 0 1.8.536c.93.135 1.996.2 3.21 0 .6-.135 1.2-.267 1.8-.535.39-.2.87-.4 1.397-.737 0 0-.6.936-2.205 1.404.33.466.795 1 .795 1 2.744-.06 3.81-1.8 3.87-1.726 0-3.87-1.815-7.02-1.815-7.02-1.635-1.214-3.165-1.26-3.435-1.26l.056-.02zm.168 4.413c.703 0 1.27.6 1.27 1.335 0 .74-.57 1.34-1.27 1.34-.7 0-1.27-.6-1.27-1.334.002-.74.573-1.338 1.27-1.338zm-4.543 0c.7 0 1.266.6 1.266 1.335 0 .74-.57 1.34-1.27 1.34-.7 0-1.27-.6-1.27-1.334 0-.74.57-1.338 1.27-1.338z"></path>
    </symbol>
    <symbol xmlns="http://www.w3.org/2000/svg" viewBox="0 0 24 24" id="youtube">
        <path d="M23.495 6.205a3.007 3.007 0 0 0-2.088-2.088c-1.87-.501-9.396-.501-9.396-.501s-7.507-.01-9.396.501A3.007 3.007 0 0 0 .527 6.205a31.247 31.247 0 0 0-.522 5.805 31.247 31.247 0 0 0 .522 5.783 3.007 3.007 0 0 0 2.088 2.088c1.868.502 9.396.502 9.396.502s7.506 0 9.396-.502a3.007 3.007 0 0 0 2.088-2.088 31.247 31.247 0 0 0 .5-5.783 31.247 31.247 0 0 0-.5-5.805zM9.609 15.601V8.408l6.264 3.602z"></path>
    </symbol>
    <symbol viewBox="0 0 24 24" xmlns="http://www.w3.org/2000/svg" id="twitter">
        <path d="M23.954 4.569a10 10 0 0 1-2.825.775 4.958 4.958 0 0 0 2.163-2.723c-.951.555-2.005.959-3.127 1.184a4.92 4.92 0 0 0-8.384 4.482C7.691 8.094 4.066 6.13 1.64 3.161a4.822 4.822 0 0 0-.666 2.475c0 1.71.87 3.213 2.188 4.096a4.904 4.904 0 0 1-2.228-.616v.061a4.923 4.923 0 0 0 3.946 4.827 4.996 4.996 0 0 1-2.212.085 4.937 4.937 0 0 0 4.604 3.417 9.868 9.868 0 0 1-6.102 2.105c-.39 0-.779-.023-1.17-.067a13.995 13.995 0 0 0 7.557 2.209c9.054 0 13.999-7.496 13.999-13.986 0-.209 0-.42-.015-.63a9.936 9.936 0 0 0 2.46-2.548l-.047-.02z"></path>
    </symbol>
    <symbol viewBox="0 0 24 24" xmlns="http://www.w3.org/2000/svg" id="facebook">
        <path d="M23.998 12c0-6.628-5.372-12-11.999-12C5.372 0 0 5.372 0 12c0 5.988 4.388 10.952 10.124 11.852v-8.384H7.078v-3.469h3.046V9.356c0-3.008 1.792-4.669 4.532-4.669 1.313 0 2.686.234 2.686.234v2.953H15.83c-1.49 0-1.955.925-1.955 1.874V12h3.328l-.532 3.469h-2.796v8.384c5.736-.9 10.124-5.864 10.124-11.853z"></path>
    </symbol>
    <symbol viewBox="0 0 480 480" xmlns="http://www.w3.org/2000/svg" id="transhuman-design">
        <path fill="#030303" d=" M 240.31 0.00 L 240.71 0.00 C 240.81 0.53 241.01 1.58 241.11 2.11 C 243.59 3.87 245.59 6.15 247.72 8.29 C 301.47 61.87 355.17 115.48 408.89 169.08 C 432.61 192.68 456.15 216.47 480.00 239.94 L 480.00 239.97 C 400.69 319.51 321.03 398.72 241.63 478.17 C 241.34 478.62 240.76 479.54 240.46 480.00 L 239.34 480.00 C 237.92 476.81 235.13 474.62 232.75 472.19 C 155.26 394.85 77.70 317.58 0.30 240.15 C 77.60 162.80 155.12 85.68 232.46 8.37 C 235.13 5.64 238.08 3.14 240.31 0.00 Z" />
        <path fill="#fdfdfd" d=" M 240.14 24.46 C 283.69 68.35 327.67 111.83 371.35 155.58 C 399.58 183.69 427.70 211.90 455.96 239.99 C 384.17 312.02 312.04 383.74 240.12 455.65 C 168.22 383.73 96.05 312.08 24.27 240.04 C 86.64 177.83 149.00 115.60 211.36 53.36 C 220.93 43.71 230.72 34.26 240.14 24.46 Z" />
        <path fill="#030303" d=" M 240.16 48.45 C 303.99 112.44 368.12 176.14 432.00 240.10 C 368.05 303.99 304.08 367.84 240.13 431.73 C 176.13 367.86 112.17 303.95 48.13 240.12 C 104.96 183.60 161.62 126.90 218.39 70.30 C 225.62 63.00 233.02 55.85 240.16 48.45 Z" />
        <path fill="#fdfdfd" d=" M 174.24 342.10 C 174.32 274.97 174.08 207.84 174.36 140.71 C 217.35 140.80 260.34 140.71 303.33 140.76 C 303.39 202.18 303.33 263.61 303.36 325.03 C 297.44 330.73 291.86 336.80 285.77 342.32 C 285.68 308.67 285.76 275.02 285.73 241.37 C 273.00 241.30 260.27 241.31 247.54 241.36 C 247.61 269.16 247.48 296.96 247.61 324.76 C 241.72 330.61 235.96 336.61 229.90 342.28 C 229.83 308.63 229.93 274.98 229.85 241.33 C 217.13 241.37 204.42 241.24 191.71 241.40 C 191.76 269.20 191.69 296.99 191.75 324.79 C 185.81 330.46 180.14 336.39 174.24 342.10 Z" />
        <path fill="#030303" d=" M 191.72 158.42 C 204.43 158.30 217.14 158.39 229.85 158.38 C 229.91 180.34 229.86 202.30 229.87 224.26 C 217.16 224.28 204.45 224.29 191.73 224.25 C 191.71 202.31 191.74 180.37 191.72 158.42 Z" />
        <path fill="#030303" d=" M 247.56 158.38 C 260.28 158.38 273.01 158.32 285.73 158.42 C 285.72 180.36 285.74 202.30 285.72 224.25 C 273.00 224.30 260.28 224.26 247.56 224.27 C 247.55 202.31 247.56 180.34 247.56 158.38 Z" />
    </symbol>
    <symbol xmlns="http://www.w3.org/2000/svg" viewBox="0 0 512 512" id="download">
        <path fill="currentColor" d="M216 0h80c13.3 0 24 10.7 24 24v168h87.7c17.8 0 26.7 21.5 14.1 34.1L269.7 378.3c-7.5 7.5-19.8 7.5-27.3 0L90.1 226.1c-12.6-12.6-3.7-34.1 14.1-34.1H192V24c0-13.3 10.7-24 24-24zm296 376v112c0 13.3-10.7 24-24 24H24c-13.3 0-24-10.7-24-24V376c0-13.3 10.7-24 24-24h146.7l49 49c20.1 20.1 52.5 20.1 72.6 0l49-49H488c13.3 0 24 10.7 24 24zm-124 88c0-11-9-20-20-20s-20 9-20 20 9 20 20 20 20-9 20-20zm64 0c0-11-9-20-20-20s-20 9-20 20 9 20 20 20 20-9 20-20z"></path>
    </symbol>
</svg>